<?xml version="1.0" standalone="no"?>
<!DOCTYPE svg PUBLIC "-//W3C//DTD SVG 20010904//EN"
 "http://www.w3.org/TR/2001/REC-SVG-20010904/DTD/svg10.dtd">
<svg version="1.0" xmlns="http://www.w3.org/2000/svg"
 width="700.000000pt" height="700.000000pt" viewBox="0 0 700.000000 700.000000"
 preserveAspectRatio="xMidYMid meet">
<metadata>
Created by potrace 1.11, written by Peter Selinger 2001-2013
</metadata>
<g transform="translate(0.000000,700.000000) scale(0.100000,-0.100000)"
fill="#000000" stroke="none">
<path d="M4390 6849 c0 -7 2 -10 5 -7 3 3 36 -1 72 -8 36 -8 74 -12 85 -9 10
4 18 2 18 -3 0 -17 -52 -20 -85 -6 -21 9 -43 10 -61 5 -16 -4 -40 -5 -54 -1
-14 4 -47 6 -73 5 -36 -2 -47 1 -43 11 6 16 -80 12 -174 -9 -36 -9 -99 -18
-140 -22 -41 -4 -78 -9 -82 -12 -4 -2 -36 -6 -70 -7 -67 -4 -241 -58 -265 -82
-8 -8 -20 -14 -26 -14 -7 0 -6 4 3 10 13 9 13 10 0 10 -26 0 -328 -59 -388
-76 -31 -8 -69 -24 -84 -35 -16 -11 -28 -15 -28 -8 0 16 -50 5 -220 -47 -261
-81 -505 -168 -505 -181 0 -4 -4 -7 -9 -5 -19 6 -346 -134 -431 -185 -49 -30
-99 -59 -110 -65 -11 -6 -35 -20 -53 -31 -20 -12 -32 -15 -32 -7 0 22 -93 -56
-213 -180 -76 -79 -162 -183 -229 -276 -100 -141 -107 -154 -131 -244 -13 -52
-43 -138 -65 -191 -35 -84 -91 -263 -105 -339 -3 -14 -10 -45 -15 -70 -6 -25
-13 -67 -17 -95 -3 -27 -8 -63 -10 -80 -3 -16 -16 -109 -30 -205 -13 -96 -27
-186 -30 -200 -16 -69 -22 -169 -20 -295 4 -150 6 -167 36 -288 21 -84 20
-132 -8 -226 -17 -62 -48 -111 -132 -215 -31 -38 -87 -118 -126 -177 -38 -60
-114 -173 -167 -251 -92 -134 -99 -150 -128 -255 l-31 -112 32 -88 c18 -48 39
-96 47 -105 24 -28 94 -57 178 -73 91 -18 317 -30 269 -15 -16 5 -111 34 -209
65 -99 30 -183 60 -188 67 -14 23 -9 47 31 140 22 51 37 96 35 100 -3 4 -14 8
-25 8 -49 0 2 58 73 82 18 6 65 36 104 65 76 57 79 62 90 167 9 87 17 110 53
156 21 26 59 90 86 141 26 52 55 102 63 112 14 15 13 17 -6 17 -13 0 -22 6
-22 15 0 8 5 15 10 15 14 0 172 158 194 194 26 42 19 74 -45 212 -10 23 -19
44 -19 48 0 4 -16 35 -36 69 l-37 62 1 125 c0 109 20 280 57 478 3 15 7 41 10
57 96 529 144 680 282 886 106 156 315 385 429 468 84 62 393 236 503 284 64
28 123 55 131 62 28 20 91 45 116 45 14 0 23 4 20 9 -4 5 3 7 15 4 11 -3 30
-1 42 5 12 6 62 23 110 38 48 15 105 39 125 52 20 13 29 21 19 18 -11 -3 -15
-2 -12 4 3 6 20 10 36 10 20 0 28 4 23 12 -4 7 -3 8 4 4 6 -4 25 0 41 8 52 28
119 46 138 39 10 -3 15 -2 10 3 -5 5 19 16 55 25 262 69 371 98 569 150 125
33 235 61 245 63 11 2 39 10 64 17 25 7 52 14 60 16 28 7 190 9 183 2 -5 -3
-53 -14 -107 -22 -95 -16 -115 -22 -105 -31 2 -3 137 -7 299 -10 389 -8 552
-15 565 -26 5 -4 29 -10 53 -14 49 -6 122 -25 137 -34 6 -4 16 -7 22 -8 7 -1
20 -9 29 -18 8 -9 21 -16 28 -16 7 0 44 -16 81 -36 62 -33 101 -49 147 -59 35
-8 145 -91 221 -167 71 -71 147 -125 159 -113 3 3 30 -23 61 -58 75 -85 168
-158 188 -147 8 5 21 3 31 -4 16 -12 68 -97 90 -148 7 -15 22 -32 34 -38 27
-15 54 -72 47 -99 -4 -17 7 -34 56 -78 33 -31 61 -61 61 -68 0 -7 9 -20 20
-30 11 -10 32 -42 47 -72 22 -43 25 -56 14 -62 -10 -7 -9 -17 8 -54 12 -25 21
-51 21 -56 0 -6 5 -10 11 -9 5 2 16 -14 23 -34 7 -20 23 -54 36 -75 28 -47 59
-135 67 -188 3 -22 14 -57 24 -77 10 -20 21 -60 23 -88 5 -56 34 -152 44 -146
4 2 7 -8 8 -22 0 -15 4 -52 7 -82 3 -30 9 -122 12 -205 4 -82 9 -152 11 -154
2 -2 5 63 5 145 2 154 5 150 26 -31 17 -152 0 -536 -25 -575 -33 -49 -43 -82
-31 -97 9 -10 8 -18 -5 -32 -19 -20 -60 -121 -50 -121 4 0 2 -6 -4 -13 -11
-13 -15 -29 -28 -120 -10 -73 -19 -64 -16 16 1 47 -1 67 -7 57 -22 -35 -52
-147 -57 -208 -9 -107 -53 -171 -133 -191 -20 -5 -67 -12 -106 -15 -97 -8
-114 -14 -163 -58 -24 -22 -64 -49 -89 -60 -25 -11 -48 -29 -50 -39 -3 -11
-14 -19 -25 -19 -11 0 -33 -14 -50 -30 -16 -17 -33 -30 -36 -31 -47 -6 -86
-16 -192 -53 -69 -24 -133 -47 -144 -51 -16 -7 -17 -6 -7 13 10 18 9 22 -4 22
-13 0 -12 7 9 43 20 33 37 47 84 67 32 14 74 37 93 52 75 57 247 236 274 283
89 158 116 197 189 273 94 97 126 118 157 102 20 -11 20 -13 3 -31 -11 -13
-24 -17 -40 -13 -30 8 -42 -18 -23 -52 l13 -25 17 33 c9 18 21 33 26 34 20 2
43 17 43 29 0 11 9 10 47 -1 25 -8 58 -14 73 -14 25 0 28 4 34 46 7 56 3 64
-35 64 -16 0 -29 3 -29 8 0 4 14 48 31 97 17 50 32 110 35 135 2 25 7 58 10
75 4 16 8 45 10 64 2 18 10 55 19 81 8 25 18 56 20 68 3 12 7 32 10 45 11 46
17 187 10 242 -4 36 -14 64 -27 77 -18 18 -21 19 -38 3 -13 -12 -30 -15 -55
-12 -20 3 -38 7 -39 8 -2 2 -11 38 -21 79 -10 41 -31 117 -47 169 -15 52 -27
99 -27 105 1 6 0 18 -4 26 -9 24 -37 113 -37 118 0 2 6 -1 14 -7 31 -26 123
-260 155 -398 8 -31 17 -50 24 -48 7 2 31 9 54 15 l41 10 -10 36 c-5 20 -11
45 -13 55 -8 40 -88 265 -110 308 -56 111 -125 171 -181 157 -20 -5 -28 0 -44
26 -11 18 -27 43 -37 56 -10 13 -25 36 -33 50 -9 15 -28 46 -43 69 -14 23 -46
77 -70 120 -79 144 -224 323 -261 323 -11 0 22 -54 44 -73 12 -10 20 -23 18
-29 -2 -6 -39 -19 -81 -29 -43 -11 -86 -23 -95 -28 -33 -18 -45 2 -40 68 5 57
19 91 39 91 5 0 9 -6 9 -14 0 -7 6 -19 13 -25 11 -8 19 -5 37 14 22 23 22 27
10 72 -7 26 -19 60 -26 75 -21 42 -161 219 -212 268 -67 63 -175 145 -208 157
-167 61 -205 73 -244 79 -25 3 -61 16 -80 29 -31 20 -66 35 -95 41 -104 23
-169 46 -180 64 -13 21 -58 30 -170 37 -115 6 -170 -3 -199 -33 -13 -12 -10
-19 18 -50 28 -30 38 -36 60 -30 23 6 25 4 17 -16 -8 -22 -13 -23 -127 -24
-84 -1 -149 -8 -219 -24 -55 -12 -111 -24 -124 -27 -14 -2 -28 -6 -32 -9 -4
-2 -18 6 -31 18 -66 65 -178 126 -240 131 -29 2 -32 -1 -43 -45 -13 -50 -11
-58 14 -58 9 -1 40 -11 70 -24 l54 -23 -132 -32 c-153 -36 -141 -35 -141 -17
0 24 -59 75 -98 85 -86 23 -203 17 -267 -14 -40 -18 -102 -86 -111 -120 -3
-14 -10 -23 -14 -20 -12 7 -100 -37 -100 -50 0 -6 -21 -17 -47 -24 -27 -8 -66
-23 -87 -34 -22 -10 -49 -20 -60 -22 -53 -7 -185 -45 -223 -64 -23 -12 -52
-21 -65 -21 -13 0 -34 -9 -48 -20 -14 -11 -31 -20 -39 -20 -8 0 -22 -6 -30
-14 -9 -8 -50 -28 -91 -45 -41 -17 -97 -48 -123 -70 -43 -36 -95 -68 -255
-158 -58 -32 -73 -47 -185 -183 -34 -41 -67 -81 -74 -88 -21 -21 -32 -46 -63
-139 -82 -249 -165 -533 -175 -603 -4 -24 -8 -47 -10 -50 -6 -9 -18 -143 -18
-190 1 -148 14 -224 47 -288 14 -27 21 -32 39 -26 31 9 47 24 47 43 0 9 10 36
21 61 19 43 19 45 2 58 -10 7 -30 16 -45 19 -54 11 -55 20 -23 153 17 69 36
164 39 195 3 22 5 42 5 44 1 3 11 -5 24 -16 23 -21 72 -40 95 -37 6 1 17 2 22
3 6 0 51 40 100 87 65 62 88 91 85 105 -3 16 6 25 42 41 40 18 47 18 60 5 8
-8 16 -38 18 -69 1 -29 6 -69 10 -88 7 -36 65 -138 94 -168 9 -9 24 -26 34
-38 17 -20 16 -20 -36 -23 -120 -4 -198 -56 -284 -187 -7 -11 -6 -2 3 19 19
49 10 63 -24 41 -25 -17 -44 -36 -105 -108 -39 -45 -113 -184 -137 -256 -32
-93 -33 -227 -4 -267 32 -42 92 -39 166 10 l56 38 64 -36 c34 -20 78 -47 95
-60 19 -13 61 -28 98 -34 36 -7 100 -24 142 -40 l76 -28 -63 -21 c-35 -12 -80
-22 -99 -22 -45 0 -109 29 -140 64 -19 20 -27 23 -38 15 -7 -6 -13 -15 -13
-20 0 -14 44 -54 98 -88 29 -18 66 -49 82 -69 28 -34 30 -35 80 -28 29 4 72
14 97 22 24 8 63 14 86 12 36 -3 42 -6 43 -26 1 -12 -4 -26 -11 -30 -16 -10
-31 -43 -31 -67 1 -15 8 -20 30 -20 25 0 30 6 47 51 11 29 37 71 58 95 l38 44
79 3 c68 2 89 8 161 43 46 22 99 42 119 43 49 2 60 21 59 105 l-1 71 40 11
c24 6 72 8 116 5 61 -5 81 -3 107 11 117 66 153 82 153 70 0 -7 -13 -26 -30
-42 -16 -16 -30 -33 -30 -37 0 -5 -11 -26 -25 -46 -20 -30 -23 -39 -12 -49 14
-14 52 -4 117 31 14 7 37 16 52 20 23 5 30 1 57 -44 32 -52 61 -67 107 -56 20
5 24 11 18 24 -4 9 -9 31 -11 48 -5 36 14 52 87 73 97 28 160 56 166 74 9 29
27 14 29 -23 1 -19 7 -36 13 -38 6 -2 21 -19 33 -38 19 -31 20 -39 8 -60 -13
-26 -53 -30 -55 -6 -1 6 -2 16 -3 21 0 5 -13 6 -28 2 -36 -10 -42 -53 -14
-112 11 -24 27 -69 36 -99 33 -115 94 -297 116 -347 15 -32 35 -58 54 -69 16
-10 42 -30 57 -46 14 -15 30 -28 35 -28 6 0 34 -17 64 -39 44 -32 56 -47 66
-82 12 -45 135 -203 184 -237 46 -31 70 -59 92 -103 43 -88 171 -299 182 -299
32 1 44 36 60 175 3 28 14 82 24 122 15 61 16 79 5 120 -16 64 -6 253 13 253
10 0 53 -55 69 -89 15 -30 15 -47 5 -130 -8 -73 -20 -231 -16 -231 0 0 23 9
50 19 28 10 70 22 95 25 91 13 139 25 180 46 19 10 69 53 110 95 65 66 137
125 155 125 3 0 5 -7 5 -15 0 -8 -19 -29 -43 -47 -42 -32 -78 -74 -139 -164
-32 -48 -33 -86 -2 -98 14 -6 124 73 132 95 2 5 10 9 18 9 8 0 17 7 20 15 9
23 24 7 24 -24 0 -37 -37 -74 -108 -107 -43 -21 -64 -25 -96 -20 -22 4 -46 11
-52 17 -17 14 -54 -6 -54 -29 0 -10 -7 -27 -15 -38 -21 -31 -55 -120 -61 -162
-3 -21 -12 -77 -20 -127 -10 -53 -17 -167 -18 -280 -2 -104 -6 -199 -9 -210
-3 -11 -8 -46 -12 -79 -5 -45 -3 -57 7 -53 7 2 12 12 11 22 -5 55 92 186 163
220 20 9 37 15 38 13 1 -1 16 -26 34 -54 17 -27 61 -74 98 -103 48 -39 64 -57
59 -69 -4 -10 -7 -20 -8 -23 -1 -4 30 -31 69 -62 l71 -55 32 20 c45 29 65 18
56 -30 -15 -83 -43 -114 -118 -127 -19 -4 -29 -1 -33 10 -9 23 -24 18 -20 -7
1 -13 0 -34 -4 -48 -6 -20 0 -33 30 -66 27 -30 39 -53 44 -88 4 -26 16 -68 27
-94 25 -57 19 -72 -25 -72 -30 0 -37 -4 -42 -27 -9 -35 25 -64 72 -61 36 2 43
12 50 73 3 22 8 42 10 45 3 3 44 7 91 10 94 5 100 3 167 -59 64 -60 109 -149
123 -244 8 -56 23 -107 33 -107 14 0 17 22 8 65 -5 22 -11 60 -13 84 -3 24
-10 52 -15 62 -6 10 -10 58 -10 107 0 81 2 90 20 95 22 6 22 6 24 -79 1 -50 2
-52 66 -104 36 -30 67 -57 70 -61 22 -29 116 -6 104 26 -6 15 -14 18 -46 18
-12 0 -18 7 -18 23 0 22 4 24 55 24 50 0 56 -2 65 -26 6 -14 10 -59 10 -100 0
-74 12 -97 25 -47 4 19 9 23 14 14 11 -17 4 -70 -15 -123 -11 -28 -18 -90 -21
-178 l-4 -135 31 -52 c28 -50 33 -53 70 -53 37 0 40 3 64 51 14 27 32 56 40
64 7 8 17 40 21 72 13 111 16 128 26 168 5 22 11 84 12 138 1 59 6 96 12 95 5
-2 9 -7 7 -13 -2 -5 2 -4 9 3 9 8 14 58 16 166 1 85 5 185 8 223 3 37 7 291
10 563 6 575 13 912 20 1025 3 44 2 93 -3 109 -7 27 -10 23 -27 -50 -11 -43
-21 -86 -22 -94 -2 -8 -6 -103 -8 -210 -2 -107 -8 -222 -13 -256 -4 -33 -7
-84 -5 -112 2 -29 4 -69 4 -89 2 -51 -10 -270 -16 -308 -3 -16 -8 -131 -11
-255 -5 -175 -10 -243 -26 -304 -11 -44 -19 -110 -19 -148 0 -64 -1 -67 -19
-56 -10 7 -22 23 -25 36 -3 13 -19 31 -36 40 -17 10 -32 28 -35 42 -13 66 -48
181 -71 233 -27 60 -30 82 -18 160 7 41 5 47 -10 47 -9 0 -30 14 -45 32 -23
26 -26 36 -19 62 4 17 10 47 13 66 2 19 12 58 21 85 21 59 37 256 39 470 1
125 5 163 25 230 13 44 24 85 25 90 5 29 80 291 85 297 3 4 5 -13 4 -36 -2
-51 20 -91 36 -66 5 8 9 30 9 50 0 21 12 59 28 91 15 30 30 72 33 93 5 30 11
40 28 42 20 3 21 0 19 -52 -2 -38 2 -60 11 -70 30 -30 53 -5 52 57 -1 57 26
174 50 213 12 21 17 44 14 70 -6 51 6 128 18 121 14 -9 28 37 17 58 -12 22 -1
74 17 84 8 5 16 33 19 68 6 59 14 121 23 160 2 11 8 45 14 75 5 30 13 71 17
90 9 45 9 617 -1 735 -9 110 -8 107 -47 230 -55 176 -68 219 -75 260 -3 22
-28 87 -55 145 -26 58 -58 128 -70 155 -12 28 -36 79 -52 115 -17 36 -38 86
-49 112 -25 63 -82 177 -132 263 -23 39 -42 77 -42 86 -2 29 -84 154 -169 259
-7 9 -11 21 -9 27 6 17 -73 109 -124 144 -43 30 -190 153 -203 170 -10 13
-111 61 -116 56 -12 -12 38 -67 101 -112 70 -50 79 -60 40 -45 -45 17 -79 38
-110 67 -39 37 -100 75 -108 66 -4 -3 -9 2 -13 11 -3 9 -10 14 -15 11 -7 -5
-183 117 -214 148 -17 17 16 -4 73 -46 38 -28 51 -33 43 -19 -14 27 -14 32 3
32 8 0 21 -9 29 -19 7 -11 32 -31 55 -44 23 -13 39 -27 35 -31 -4 -4 0 -4 8
-1 9 3 22 -1 29 -10 15 -18 30 -20 30 -2 -1 18 -37 56 -115 118 -38 31 -95 80
-125 108 -30 29 -66 54 -80 58 -14 3 -63 22 -110 41 l-85 36 -310 2 c-170 2
-320 6 -332 9 -14 3 -23 1 -23 -6z m423 -36 c-4 -9 -22 -12 -58 -9 -87 6 -95
22 -11 21 54 0 72 -3 69 -12z m189 -4 c9 -5 27 -9 39 -9 29 0 89 -22 89 -32 0
-12 -28 -9 -58 6 -32 16 -110 29 -209 35 -7 1 -13 5 -13 10 0 11 128 2 152
-10z m248 -121 c0 -12 -6 -9 -26 13 -19 22 -19 22 4 8 12 -8 22 -17 22 -21z
m-1784 3 c-6 -9 -46 -22 -46 -15 0 3 10 9 23 14 29 11 29 11 23 1z m1663 -17
c12 -11 9 -11 -22 -2 -20 6 -37 15 -37 20 0 12 41 0 59 -18z m-1632 -20 c-3
-3 -12 -4 -19 -1 -8 3 -5 6 6 6 11 1 17 -2 13 -5z m-310 -70 c-3 -3 -12 -4
-19 -1 -8 3 -5 6 6 6 11 1 17 -2 13 -5z m-52 -14 c-11 -5 -27 -9 -35 -9 -9 0
-8 4 5 9 11 5 27 9 35 9 9 0 8 -4 -5 -9z m-430 -130 c-3 -5 -12 -7 -20 -3 -21
7 -19 13 6 13 11 0 18 -4 14 -10z m1892 -66 l38 -26 -60 6 c-33 2 -69 5 -80 6
-19 1 -19 2 4 20 31 26 53 25 98 -6z m-2341 -123 c-3 -4 -27 -14 -53 -21 -27
-7 -90 -33 -141 -58 -51 -24 -95 -42 -99 -39 -3 4 3 10 13 13 10 4 34 18 52
31 17 13 32 21 32 18 0 -3 13 1 29 10 22 11 124 44 169 54 2 1 1 -3 -2 -8z
m1022 -16 c35 -8 26 -21 -24 -35 -34 -10 -54 -10 -80 -2 -24 7 -44 7 -64 0
-16 -5 -37 -8 -47 -6 -15 3 -14 6 8 21 44 30 137 39 207 22z m2494 -15 c14
-16 23 -32 18 -35 -7 -4 -18 6 -49 48 -23 29 3 19 31 -13z m-1537 -40 c4 -6
-5 -10 -21 -10 -15 0 -52 -12 -82 -27 -48 -24 -58 -25 -86 -14 -17 6 -35 13
-39 14 -12 3 -21 -15 -49 -93 l-23 -65 -3 38 c-6 73 42 164 76 143 4 -2 34 -8
67 -11 53 -7 58 -6 47 8 -11 13 -10 16 10 20 44 8 97 7 103 -3z m-517 -43 c12
-11 22 -28 22 -36 0 -10 -7 -6 -18 12 -10 15 -27 34 -38 43 -10 8 -12 12 -4 8
8 -4 25 -16 38 -27z m-438 -198 c0 -30 -9 -88 -20 -129 l-20 -75 6 55 c3 30 7
76 10 101 2 26 0 59 -6 73 -6 16 -6 25 -1 21 5 -3 13 0 16 6 12 18 16 4 15
-52z m-1023 -25 c-3 -3 -12 -4 -19 -1 -8 3 -5 6 6 6 11 1 17 -2 13 -5z m1587
-68 c-10 -19 -41 -62 -67 -96 -49 -62 -49 -62 -68 -43 -20 19 -19 20 56 96 41
42 75 82 75 89 0 9 3 9 12 0 9 -9 8 -20 -8 -46z m-184 -190 c-4 -6 -22 -19
-39 -29 l-31 -18 0 28 c0 27 3 29 40 29 27 0 37 -3 30 -10z m2652 -113 c4 -13
2 -25 -2 -28 -10 -6 -47 55 -57 93 -6 26 -5 25 24 -8 16 -19 32 -45 35 -57z
m-2810 -24 c-8 -33 -23 -38 -58 -21 -30 14 -33 18 -20 27 22 16 82 11 78 -6z
m148 -69 c0 -3 -14 -7 -30 -8 -28 -2 -29 -1 -18 17 9 15 15 17 30 8 10 -7 18
-14 18 -17z m-1136 -62 c-2 -55 -5 -64 -14 -37 -8 28 -2 81 9 75 3 -2 6 -19 5
-38z m291 -75 c-12 -83 -18 -103 -25 -98 -5 3 -6 15 -3 28 19 95 40 145 28 70z
m3686 -141 c65 -133 78 -169 59 -157 -10 6 -12 -1 -7 -33 4 -22 3 -43 -2 -46
-5 -3 -11 13 -15 36 -5 29 -3 44 6 49 10 7 9 14 -5 36 -39 59 -113 233 -99
233 4 -1 32 -53 63 -118z m-4796 24 c-31 -14 -41 -13 -32 1 3 5 18 9 34 10
l28 2 -30 -13z m252 -145 c18 -20 33 -40 33 -45 0 -13 -61 59 -83 98 -16 27
-16 28 -1 7 10 -13 33 -40 51 -60z m303 -245 c0 -3 -4 -8 -10 -11 -5 -3 -10
-1 -10 4 0 6 5 11 10 11 6 0 10 -2 10 -4z m4377 -218 c-3 -8 -6 -5 -6 6 -1 11
2 17 5 13 3 -3 4 -12 1 -19z m-4267 -193 c13 -8 1 -40 -20 -53 -11 -6 -48 -15
-84 -18 -60 -6 -67 -4 -101 22 -37 28 -37 28 -13 37 54 21 192 28 218 12z
m-371 -74 l44 -18 -31 -6 -32 -6 0 -101 0 -100 -57 40 c-32 22 -71 51 -86 64
-16 14 -42 28 -58 31 -16 4 -29 10 -29 14 0 10 70 76 95 89 30 17 104 13 154
-7z m4551 -1097 c0 -24 -48 -154 -71 -190 -12 -19 -19 -37 -16 -40 10 -11 -42
-118 -62 -126 -25 -9 -26 0 -4 47 10 21 22 34 30 31 7 -3 13 -4 13 -2 0 3 3
13 7 23 6 16 5 16 -11 4 -14 -12 -14 -6 5 40 12 30 36 95 53 145 21 64 34 90
43 87 7 -3 13 -11 13 -19z m-240 -318 c0 -2 -8 -10 -17 -17 -16 -13 -17 -12
-4 4 13 16 21 21 21 13z m-468 -220 c-31 -35 -43 -38 -35 -8 4 16 53 53 62 46
2 -2 -10 -19 -27 -38z m-88 -56 c-19 -29 -30 -37 -35 -28 -5 8 2 23 18 40 39
41 47 34 17 -12z m8 -82 c-16 -29 -42 -98 -58 -153 -23 -82 -28 -117 -27 -197
2 -103 2 -104 -46 -91 -23 6 -23 9 -18 78 8 110 86 336 132 383 19 20 35 41
36 47 0 5 3 4 6 -2 2 -7 -9 -36 -25 -65z m-562 -337 c0 -5 -9 -19 -20 -32
l-20 -24 16 33 c15 32 24 40 24 23z m551 -541 c5 0 9 -48 9 -106 0 -108 -12
-131 -24 -47 -21 140 -22 164 -8 158 7 -3 18 -5 23 -5z"/>
<path d="M3740 6620 c-9 -6 -10 -10 -3 -10 6 0 15 5 18 10 8 12 4 12 -15 0z"/>
<path d="M3546 6571 c-4 -5 3 -7 14 -4 23 6 26 13 6 13 -8 0 -17 -4 -20 -9z"/>
<path d="M3345 6525 c-33 -7 -87 -20 -120 -29 l-60 -15 60 5 c106 10 138 15
167 30 27 14 37 25 21 23 -5 0 -35 -7 -68 -14z"/>
<path d="M5400 6536 c0 -2 8 -10 18 -17 15 -13 16 -12 3 4 -13 16 -21 21 -21
13z"/>
<path d="M5455 6490 c3 -5 8 -10 11 -10 2 0 4 5 4 10 0 6 -5 10 -11 10 -5 0
-7 -4 -4 -10z"/>
<path d="M3130 6470 c-9 -6 -10 -10 -3 -10 6 0 15 5 18 10 8 12 4 12 -15 0z"/>
<path d="M3874 6367 c-25 -19 -32 -47 -12 -47 6 0 27 5 45 12 23 8 33 18 33
33 0 27 -34 28 -66 2z"/>
<path d="M1252 5151 c-7 -15 -35 -77 -62 -137 -27 -60 -46 -111 -42 -115 7 -6
121 -39 135 -39 4 0 5 33 2 73 -11 173 -16 241 -18 243 -1 2 -8 -10 -15 -25z"/>
<path d="M1131 4850 c-7 -4 -14 -22 -17 -41 -3 -19 -11 -70 -19 -114 -7 -44
-16 -102 -20 -130 -3 -27 -12 -75 -20 -105 -7 -30 -16 -77 -20 -105 -3 -27
-14 -92 -24 -142 -21 -111 -25 -273 -7 -325 14 -40 72 -118 87 -118 6 0 7 4 4
10 -3 5 0 21 8 35 11 22 11 37 1 86 -7 32 -15 83 -18 113 -4 29 -8 63 -11 74
-2 11 3 38 10 59 19 55 25 108 30 253 7 224 13 266 46 379 11 35 17 66 14 69
-9 9 -31 10 -44 2z"/>
<path d="M6580 4319 c0 -5 5 -7 10 -4 6 3 10 8 10 11 0 2 -4 4 -10 4 -5 0 -10
-5 -10 -11z"/>
<path d="M6595 4251 c-3 -5 -1 -12 5 -16 5 -3 10 1 10 9 0 18 -6 21 -15 7z"/>
<path d="M6597 4190 c-3 -11 -2 -22 2 -24 4 -3 8 6 9 20 2 29 -4 31 -11 4z"/>
<path d="M6602 4125 c0 -16 2 -22 5 -12 2 9 2 23 0 30 -3 6 -5 -1 -5 -18z"/>
<path d="M6597 4037 c-3 -8 -2 -20 3 -26 5 -9 8 -4 8 13 0 29 -3 32 -11 13z"/>
<path d="M6602 3960 c0 -14 2 -19 5 -12 2 6 2 18 0 25 -3 6 -5 1 -5 -13z"/>
<path d="M6638 3945 c-4 -22 -10 -65 -13 -95 -11 -97 -27 -180 -35 -175 -4 2
-5 -8 -3 -23 3 -23 2 -24 -6 -7 l-10 20 -1 -20 c-1 -11 -3 -32 -4 -47 -1 -14
2 -24 6 -22 14 9 48 92 53 131 3 21 10 63 16 93 6 30 9 84 7 120 -3 61 -3 63
-10 25z"/>
<path d="M6601 3914 c0 -11 3 -14 6 -6 3 7 2 16 -1 19 -3 4 -6 -2 -5 -13z"/>
<path d="M6596 3779 c-10 -31 -16 -69 -12 -69 7 0 26 73 21 78 -3 3 -7 -1 -9
-9z"/>
<path d="M2795 3695 c-22 -18 -36 -37 -32 -41 4 -4 33 4 63 19 47 23 54 30 44
42 -18 22 -30 18 -75 -20z"/>
<path d="M3096 3621 c-8 -13 53 -122 92 -163 20 -21 60 -50 91 -64 93 -45 138
-84 166 -141 14 -29 26 -63 27 -75 4 -48 -112 -177 -234 -261 -26 -17 -48 -35
-48 -39 0 -20 89 -52 151 -54 55 -3 83 -11 180 -57 282 -134 385 -191 418
-231 12 -14 12 -16 0 -12 -8 2 -45 14 -84 27 -98 31 -229 85 -300 124 -62 35
-137 64 -216 85 -61 16 -192 6 -263 -19 -12 -4 -71 -7 -133 -7 l-112 2 -53 38
c-29 21 -72 50 -96 64 -42 27 -62 65 -76 147 -17 101 -54 154 -71 103 -4 -13
-11 -32 -15 -43 -10 -31 35 -110 101 -175 14 -15 29 -38 32 -52 4 -15 19 -41
34 -58 21 -26 24 -33 12 -41 -8 -5 -17 -9 -21 -9 -18 0 -6 -37 15 -47 61 -29
92 -41 97 -38 6 3 133 17 195 20 43 2 135 -24 194 -56 19 -10 44 -19 54 -19
27 0 134 -47 194 -86 l53 -33 -1 -68 c0 -56 7 -87 42 -178 79 -208 161 -440
178 -500 13 -48 21 -61 39 -63 23 -3 27 9 22 67 -2 32 24 23 28 -10 6 -41 82
-190 93 -183 12 7 9 24 -14 115 -8 31 -18 92 -22 135 -4 44 -8 81 -10 84 -2 3
-6 56 -10 117 -7 111 -7 113 23 177 17 36 43 82 58 101 l26 35 41 -35 c22 -19
44 -35 49 -35 13 0 9 -79 -6 -108 -7 -15 -21 -64 -31 -109 -21 -98 -37 -118
-84 -102 -22 8 -36 8 -43 1 -16 -16 8 -44 65 -77 58 -34 72 -66 38 -87 -18
-11 -21 -23 -21 -88 0 -52 5 -82 15 -96 12 -16 16 -17 24 -4 9 13 19 70 27
150 7 76 92 138 195 144 35 2 80 -1 100 -8 20 -7 45 -9 57 -5 18 7 20 15 17
76 -3 69 -58 289 -95 383 -21 52 -141 243 -148 235 -2 -2 3 -24 11 -49 18 -51
4 -75 -21 -38 -8 12 -18 22 -23 22 -14 0 -11 -68 3 -72 9 -3 9 -6 1 -11 -16
-10 -53 32 -87 98 l-29 54 33 38 c21 23 28 39 21 41 -7 2 -18 -4 -26 -14 -11
-16 -13 -13 -11 26 1 25 -4 62 -10 82 -10 29 -10 39 0 47 7 6 12 21 11 33 -1
18 -10 24 -43 30 -23 4 -49 11 -57 15 -24 14 -155 203 -187 272 -17 35 -52
100 -78 145 -49 82 -67 122 -116 256 -30 81 -42 102 -54 95 -13 -8 -82 -17
-143 -19 -43 -1 -71 5 -108 22 -27 13 -49 28 -49 33 0 11 -67 12 -74 0z"/>
<path d="M6540 3508 c-6 -24 -14 -52 -17 -63 -10 -35 5 -12 26 42 11 29 16 55
11 58 -5 3 -14 -14 -20 -37z"/>
<path d="M1609 3428 c-52 -6 -165 -39 -199 -57 -9 -5 -31 -12 -49 -16 -32 -7
-76 -43 -117 -97 -14 -18 -20 -39 -19 -67 2 -40 2 -40 -50 -56 -74 -24 -76
-26 -66 -62 8 -28 6 -34 -14 -47 -33 -22 -145 -127 -145 -136 0 -13 88 -23
225 -25 78 -1 156 -8 195 -18 73 -18 107 -24 165 -31 195 -23 197 -24 395 -77
80 -21 159 -40 175 -43 17 -2 46 -10 65 -18 19 -9 42 -18 50 -21 9 -3 3 -6
-12 -6 -15 -1 -37 3 -50 8 -22 9 -137 34 -208 47 -19 3 -70 6 -113 6 -67 -1
-86 3 -136 29 -32 16 -70 32 -84 35 -15 2 -38 9 -52 14 -69 26 -273 32 -352
11 -43 -12 -73 -47 -73 -86 0 -29 38 -91 77 -126 31 -29 56 -39 133 -56 52
-12 113 -25 135 -27 109 -15 128 -21 214 -73 l44 -26 254 -1 c273 -1 259 2
237 -50 -7 -17 -4 -19 26 -13 38 8 60 24 60 44 0 10 8 8 30 -8 l30 -22 34 35
35 36 34 -33 c45 -44 77 -39 77 11 0 48 15 50 61 5 60 -57 85 -59 136 -8 23
23 42 51 43 62 6 59 -1 73 -70 140 -88 87 -116 105 -162 105 -20 0 -38 5 -40
12 -3 7 -48 12 -137 14 -136 3 -275 26 -300 49 -8 8 -10 21 -6 34 6 19 12 21
43 16 20 -3 59 -17 86 -31 45 -24 59 -26 172 -25 69 0 130 3 137 8 19 12 37
12 37 1 0 -6 6 -8 14 -5 8 3 16 1 19 -6 2 -6 6 -7 9 -2 3 6 -4 30 -15 55 l-21
45 -4 -32 c-2 -18 -7 -33 -12 -33 -5 0 -39 15 -77 34 -40 21 -90 37 -123 41
-81 9 -162 26 -186 39 -38 20 -144 122 -144 138 0 22 13 25 103 23 83 -2 83 0
4 41 l-48 25 -37 -31 c-43 -36 -55 -37 -119 -9 -75 33 -162 56 -231 63 -66 6
-173 39 -269 83 l-56 26 39 14 c21 8 55 21 74 29 32 13 38 13 74 -5 37 -19 76
-18 42 1 -9 5 -20 7 -25 4 -11 -7 -20 14 -14 32 3 8 35 12 111 12 113 0 116 3
42 42 -38 20 -53 22 -101 16z"/>
<path d="M1855 3360 c-11 -5 -28 -11 -38 -14 -18 -6 -17 -7 2 -33 11 -16 34
-44 51 -63 38 -44 50 -33 53 48 0 24 -24 72 -37 71 -6 0 -20 -4 -31 -9z"/>
<path d="M6170 3343 c-37 -16 -47 -29 -176 -233 -69 -109 -166 -221 -259 -298
-45 -38 -43 -38 35 0 100 49 211 98 220 98 5 0 37 21 72 48 35 26 76 55 91 65
42 27 86 77 81 91 -4 10 -14 10 -52 1 -26 -7 -48 -12 -49 -11 -2 1 -5 13 -7
27 -2 13 -5 26 -5 28 -1 2 -10 -4 -21 -14 -33 -30 -23 -2 29 76 44 67 86 140
79 138 -2 -1 -19 -8 -38 -16z"/>
<path d="M934 3264 c-18 -14 -18 -14 6 -3 31 14 36 19 24 19 -6 0 -19 -7 -30
-16z"/>
<path d="M2263 3112 c-18 -8 -33 -18 -33 -22 0 -3 24 -5 53 -5 28 1 67 -4 84
-11 20 -8 35 -9 38 -3 23 36 -87 69 -142 41z"/>
<path d="M2210 3017 c0 -28 16 -44 57 -57 15 -5 48 -16 72 -25 24 -9 78 -18
120 -21 l76 -5 -80 42 c-44 23 -87 47 -95 54 -8 7 -37 16 -65 20 -27 4 -58 9
-67 12 -14 3 -18 -2 -18 -20z"/>
<path d="M2930 2853 c-11 -8 -20 -23 -20 -34 0 -17 7 -19 69 -19 52 0 70 4 75
15 6 16 -2 44 -13 46 -48 7 -94 4 -111 -8z"/>
<path d="M6215 2269 c-3 -9 -5 -36 -3 -60 l3 -44 11 40 c11 43 3 96 -11 64z"/>
<path d="M2351 2169 c-29 -10 -75 -35 -102 -55 -27 -20 -71 -42 -98 -49 -27
-7 -54 -16 -60 -19 -15 -10 -14 -46 2 -50 64 -17 71 -22 72 -49 2 -21 -4 -31
-19 -38 -15 -6 -5 -8 36 -7 68 2 84 -10 95 -65 8 -41 12 -43 53 -38 6 0 10 15
10 31 0 23 6 33 25 42 22 10 28 9 41 -11 15 -21 17 -21 35 -5 18 16 21 16 59
-1 35 -16 40 -22 40 -52 0 -38 26 -47 38 -13 7 19 12 18 69 -27 130 -101 195
-144 211 -141 27 5 20 33 -8 33 -19 0 -26 6 -28 26 -3 26 1 28 61 20 4 -1 37
-30 74 -65 66 -62 95 -74 88 -35 -2 10 4 24 14 31 10 7 20 23 23 35 5 20 2 21
-28 18 -34 -3 -48 15 -24 30 19 12 -10 35 -42 35 -22 0 -44 14 -86 53 -31 30
-73 63 -92 74 -40 24 -295 133 -310 133 -5 0 -8 10 -6 23 4 29 37 30 131 5
103 -27 141 -44 198 -87 29 -22 99 -67 156 -101 58 -34 120 -75 138 -91 42
-36 49 -36 56 -1 9 40 74 75 95 49 5 -7 13 -28 17 -47 14 -68 43 -108 95 -135
l50 -25 -9 22 c-5 13 -34 72 -65 132 -31 60 -56 114 -56 120 0 14 -60 78 -103
110 -18 13 -104 48 -192 76 -88 29 -204 70 -258 91 -97 39 -100 39 -220 37
-88 -1 -138 -6 -176 -19z"/>
<path d="M3898 2139 c-4 -23 -5 -95 -1 -102 2 -4 12 -3 22 2 12 7 18 24 19 54
2 37 0 45 -18 50 -11 3 -21 1 -22 -4z"/>
<path d="M6239 2008 c-7 -23 -2 -51 13 -65 27 -25 44 -24 69 3 22 23 22 24 4
44 -11 12 -31 20 -52 20 -18 0 -33 -1 -34 -2z"/>
<path d="M1010 1948 c-24 -10 -46 -21 -48 -23 -2 -2 17 -55 42 -118 85 -215
169 -500 192 -647 11 -72 11 -176 1 -239 -9 -53 -7 -63 12 -95 23 -37 75 -60
161 -71 181 -22 262 -43 425 -105 61 -23 119 -44 130 -46 131 -30 192 -35 425
-39 140 -3 298 -7 350 -10 176 -9 285 -17 289 -21 14 -13 31 25 31 67 l0 49
-62 1 c-35 1 -76 2 -93 4 -42 5 -335 15 -560 20 -270 6 -293 10 -495 87 -58
22 -114 41 -124 43 -10 3 -33 9 -50 14 -17 6 -89 20 -161 31 -190 31 -175 24
-168 78 12 87 5 218 -16 317 -5 22 -12 56 -16 75 -29 142 -132 449 -211 626
l-9 22 -45 -20z"/>
<path d="M2096 1902 c-3 -5 1 -9 9 -9 8 0 12 4 9 9 -3 4 -7 8 -9 8 -2 0 -6 -4
-9 -8z"/>
<path d="M2030 1890 c-13 -9 -13 -10 0 -9 8 0 24 4 35 9 l20 9 -20 0 c-11 0
-27 -4 -35 -9z"/>
<path d="M1936 1855 c-14 -22 -15 -25 -1 -25 8 0 15 3 15 8 0 4 12 15 28 24
l27 17 -26 1 c-18 0 -32 -9 -43 -25z"/>
<path d="M1913 1800 c-10 -15 -8 -21 12 -34 23 -15 23 -15 15 16 -12 40 -13
41 -27 18z"/>
<path d="M6155 1537 c3 -23 8 -68 11 -99 5 -50 9 -58 26 -58 19 0 20 4 13 53
-20 140 -20 140 -38 143 -17 2 -18 -2 -12 -39z"/>
<path d="M5079 1555 c-1 -3 -2 -8 -3 -12 0 -5 -13 -35 -28 -68 -14 -33 -29
-76 -31 -95 -10 -68 -27 -144 -35 -152 -13 -13 -35 9 -37 39 -2 15 -3 31 -4
36 -1 4 -6 7 -11 7 -15 0 -8 -57 15 -117 17 -47 22 -53 47 -53 15 0 28 -5 28
-11 0 -15 -30 -78 -52 -111 -18 -26 -18 -28 -1 -21 10 3 23 10 29 14 17 14
134 41 149 35 35 -13 78 -170 57 -203 -4 -5 -35 -22 -69 -38 -54 -24 -62 -32
-59 -51 6 -30 11 -39 76 -117 l55 -67 55 0 c76 0 81 5 75 75 -7 94 -29 94 -65
-2 -12 -34 -24 -49 -39 -51 -19 -3 -26 7 -22 32 1 4 -3 13 -8 20 -5 6 -11 25
-12 42 -3 26 5 41 40 79 l43 46 -4 125 c-2 102 -6 127 -19 134 -8 5 -24 27
-33 49 -18 38 -18 39 5 70 20 28 37 36 62 32 5 -1 -2 17 -14 39 -25 45 -57 59
-94 42 -28 -13 -35 -7 -35 28 0 23 6 29 31 34 38 7 35 21 -30 122 -41 65 -58
84 -62 69z"/>
<path d="M6281 1270 c-1 -18 16 -46 23 -40 2 3 -2 16 -9 30 -8 15 -14 19 -14
10z"/>
<path d="M5129 977 c5 -13 19 -39 30 -58 l21 -34 -6 35 c-7 39 -30 80 -44 80
-6 0 -6 -9 -1 -23z"/>
</g>
</svg>
